<?xml version="1.0" encoding="UTF-8" standalone="no" ?>
<!DOCTYPE svg PUBLIC "-//W3C//DTD SVG 1.1//EN" "http://www.w3.org/Graphics/SVG/1.1/DTD/svg11.dtd">
<svg xmlns="http://www.w3.org/2000/svg" xmlns:xlink="http://www.w3.org/1999/xlink" version="1.1" width="510" height="100" viewBox="0 0 510 100" xml:space="preserve">
<desc>Sdelano: LOGOZA.RU</desc>
<defs>

                <style type="text/css">
                    @font-face {
                        font-family: "Papyrus";
                        src: url("1Papyrus.woff") format("woff");
                        src: url("1Papyrus.ttf") format("truetype");
                        font-weight: normal;
                        font-style: normal;
                        font-display: swap;
                    }
                </style>
            
                <style type="text/css">
                    @font-face {
                        font-family: "Papyrus";
                        src: url("1Papyrus.woff") format("woff");
                        src: url("1Papyrus.ttf") format("truetype");
                        font-weight: normal;
                        font-style: normal;
                        font-display: swap;
                    }
                </style>
            
</defs>
<rect x="0" y="0" width="100%" height="100%" fill="#1b1b1b"></rect>
<g transform="matrix(1 0 0 1 255 50)"  >
<g style=""   >
		<g transform="matrix(-0.16 0 0 0.16 -10.91 0)"  >
<filter id="SVGID_5690" y="-20%" height="140%" x="-22%" width="144%" >
	<feGaussianBlur in="SourceAlpha" stdDeviation="0"></feGaussianBlur>
	<feOffset dx="-10" dy="0" result="oBlur" ></feOffset>
	<feFlood flood-color="rgb(0,0,0)" flood-opacity="1"/>
	<feComposite in2="oBlur" operator="in" />
	<feMerge>
		<feMergeNode></feMergeNode>
		<feMergeNode in="SourceGraphic"></feMergeNode>
	</feMerge>
</filter>
<g style="filter: url(#SVGID_5690);"   >
		<g transform="matrix(1 0 0 1 0 0)" id="Layer_1"  >
<linearGradient id="SVGID_SVGID_1__1" gradientUnits="userSpaceOnUse" gradientTransform="matrix(1 0 0 1 0 0)"  x1="318.2742" y1="205.0453" x2="137.6471" y2="462.4391">
<stop offset="0%" style="stop-color:#DD6767;stop-opacity: 1"/>
<stop offset="100%" style="stop-color:#DD6767;stop-opacity: 1"/>
</linearGradient>
<path style="stroke: none; stroke-width: 1; stroke-dasharray: none; stroke-linecap: butt; stroke-dashoffset: 0; stroke-linejoin: miter; stroke-miterlimit: 4; fill: url(#SVGID_SVGID_1__1); fill-rule: nonzero; opacity: 1;"  transform=" translate(-256, -256)" d="M 436.7 480.8 c -4.9 0 -9.6 -2.1 -12.9 -5.9 c -6 -7 -10.8 -13.1 -14.7 -17.9 c -10.7 -13.4 -13.5 -16.4 -18.9 -18.1 c -8.4 -2.6 -24.8 -2.6 -54.6 -2.5 c -6.2 0 -219.3 0 -219.3 0 C 52.2 436.4 0 384.2 0 320 v -81.9 c 0 -28.9 10.8 -56.7 30.3 -78.2 c 14.2 -15.6 32 -27 51.9 -33.1 c 9.8 -54.3 57.4 -95.6 114.5 -95.6 h 198.9 c 64.2 0 116.4 52.2 116.4 116.4 v 125 c 0 9.4 -7.6 16.9 -16.9 16.9 c -9.4 0 -16.9 -7.6 -16.9 -16.9 v -125 c 0 -45.5 -37 -82.5 -82.5 -82.5 H 196.7 c -45.5 0 -82.5 37 -82.5 82.5 v 81.9 c 0 45.5 37 82.5 82.5 82.5 h 240 c 9.4 0 16.9 7.6 16.9 16.9 v 134.8 c 0 7.1 -4.4 13.4 -11.1 15.9 C 440.7 480.4 438.7 480.8 436.7 480.8 z M 349.2 402.5 c 40.9 0 55.2 1.3 70.6 15.5 v -72.1 H 196.7 c -64.2 0 -116.4 -52.2 -116.4 -116.4 v -65.6 c -9.3 4.6 -17.8 10.9 -25 18.8 c -13.9 15.3 -21.5 34.9 -21.5 55.4 V 320 c 0 45.5 37 82.5 82.5 82.5 C 116.4 402.5 345 402.5 349.2 402.5 z" stroke-linecap="round" />
</g>
		<g transform="matrix(1 0 0 1 -72.9 -67.4)" id="Layer_1"  >
<linearGradient id="SVGID_SVGID_2__2" gradientUnits="userSpaceOnUse" gradientTransform="matrix(1 0 0 1 0 0)"  x1="219.9508" y1="136.0907" x2="16.9883" y2="425.3125">
<stop offset="0%" style="stop-color:#DD6767;stop-opacity: 1"/>
<stop offset="100%" style="stop-color:#DD6767;stop-opacity: 1"/>
</linearGradient>
<path style="stroke: none; stroke-width: 1; stroke-dasharray: none; stroke-linecap: butt; stroke-dashoffset: 0; stroke-linejoin: miter; stroke-miterlimit: 4; fill: url(#SVGID_SVGID_2__2); fill-rule: nonzero; opacity: 1;"  transform=" translate(-183.1, -188.6)" d="M 202.1 188.6 c 0 -10.5 -8.5 -19 -19 -19 c -10.5 0 -19 8.5 -19 19 c 0 10.5 8.5 19 19 19 C 193.6 207.7 202.1 199.1 202.1 188.6 z" stroke-linecap="round" />
</g>
		<g transform="matrix(1 0 0 1 39.6 -67.4)" id="Layer_1"  >
<linearGradient id="SVGID_SVGID_3__3" gradientUnits="userSpaceOnUse" gradientTransform="matrix(1 0 0 1 0 0)"  x1="295.291" y1="188.9714" x2="92.3363" y2="478.1822">
<stop offset="0%" style="stop-color:#DD6767;stop-opacity: 1"/>
<stop offset="100%" style="stop-color:#DD6767;stop-opacity: 1"/>
</linearGradient>
<path style="stroke: none; stroke-width: 1; stroke-dasharray: none; stroke-linecap: butt; stroke-dashoffset: 0; stroke-linejoin: miter; stroke-miterlimit: 4; fill: url(#SVGID_SVGID_3__3); fill-rule: nonzero; opacity: 1;"  transform=" translate(-295.6, -188.6)" d="M 314.6 188.6 c 0 -10.5 -8.5 -19 -19 -19 c -10.5 0 -19 8.5 -19 19 c 0 10.5 8.5 19 19 19 C 306 207.7 314.6 199.1 314.6 188.6 z" stroke-linecap="round" />
</g>
		<g transform="matrix(1 0 0 1 152 -67.4)" id="Layer_1"  >
<linearGradient id="SVGID_SVGID_4__4" gradientUnits="userSpaceOnUse" gradientTransform="matrix(1 0 0 1 0 0)"  x1="370.638" y1="241.8493" x2="167.6848" y2="531.058">
<stop offset="0%" style="stop-color:#DD6767;stop-opacity: 1"/>
<stop offset="100%" style="stop-color:#DD6767;stop-opacity: 1"/>
</linearGradient>
<path style="stroke: none; stroke-width: 1; stroke-dasharray: none; stroke-linecap: butt; stroke-dashoffset: 0; stroke-linejoin: miter; stroke-miterlimit: 4; fill: url(#SVGID_SVGID_4__4); fill-rule: nonzero; opacity: 1;"  transform=" translate(-408, -188.6)" d="M 427 188.6 c 0 -10.5 -8.5 -19 -19 -19 c -10.5 0 -19 8.5 -19 19 c 0 10.5 8.5 19 19 19 C 418.5 207.7 427 199.1 427 188.6 z" stroke-linecap="round" />
</g>
</g>
</g>
		<g transform="matrix(1 0 0 1 -153.91 0)" style="filter: url(#SVGID_5691);"  >
<filter id="SVGID_5691" y="-20%" height="140%" x="-20%" width="140%" >
	<feGaussianBlur in="SourceAlpha" stdDeviation="0"></feGaussianBlur>
	<feOffset dx="0" dy="0" result="oBlur" ></feOffset>
	<feFlood flood-color="rgb(0,0,0)" flood-opacity="1"/>
	<feComposite in2="oBlur" operator="in" />
	<feMerge>
		<feMergeNode></feMergeNode>
		<feMergeNode in="SourceGraphic"></feMergeNode>
	</feMerge>
</filter>
		<text xml:space="preserve" font-family="Papyrus" font-size="60.5" font-style="normal" font-weight="400" style="stroke: rgb(0,0,0); stroke-width: 0; stroke-dasharray: none; stroke-linecap: butt; stroke-dashoffset: 0; stroke-linejoin: round; stroke-miterlimit: 4; fill: rgb(163,163,163); fill-rule: nonzero; opacity: 1; white-space: pre;" paint-order="stroke"  ><tspan x="-91.66" y="19.01" >АНТИ</tspan></text>
</g>
		<g transform="matrix(1 0 0 1 150.09 0)" style="filter: url(#SVGID_5692);"  >
<filter id="SVGID_5692" y="-20%" height="140%" x="-20%" width="140%" >
	<feGaussianBlur in="SourceAlpha" stdDeviation="0"></feGaussianBlur>
	<feOffset dx="0" dy="0" result="oBlur" ></feOffset>
	<feFlood flood-color="rgb(0,0,0)" flood-opacity="1"/>
	<feComposite in2="oBlur" operator="in" />
	<feMerge>
		<feMergeNode></feMergeNode>
		<feMergeNode in="SourceGraphic"></feMergeNode>
	</feMerge>
</filter>
		<text xml:space="preserve" font-family="Papyrus" font-size="60.5" font-style="normal" font-weight="400" style="stroke: rgb(0,0,0); stroke-width: 0; stroke-dasharray: none; stroke-linecap: butt; stroke-dashoffset: 0; stroke-linejoin: round; stroke-miterlimit: 4; fill: rgb(163,163,163); fill-rule: nonzero; opacity: 1; white-space: pre;" paint-order="stroke"  ><tspan x="-95.47" y="19.01" >КАФЕ</tspan></text>
</g>
</g>
</g>
</svg>